<svg width="112" height="113" viewBox="0 0 112 113" xmlns="http://www.w3.org/2000/svg"><title>FC4A2FC5-4BB0-4CA3-8565-B2689BD9226F</title><g transform="translate(0 .366)" fill="none" fill-rule="evenodd"><ellipse fill="#1EBFDC" cx="56" cy="56" rx="56" ry="56"/><g style="mix-blend-mode:multiply" transform="translate(43 44)"><path d="M.49 16.667A13.195 13.195 0 0 1 0 13.095C0 5.863 5.82 0 13 0s13 5.863 13 13.095c0 1.238-.17 2.436-.49 3.572h-2.479c.392-1.117.605-2.32.605-3.572 0-5.917-4.762-10.714-10.636-10.714S2.364 7.178 2.364 13.095c0 1.253.213 2.455.605 3.572H.489z" fill="#3C3F43"/><path d="M22.577 4.24A12.923 12.923 0 0 0 13 0C9.35 0 6.051 1.515 3.69 3.956l3.047 3.047A8.651 8.651 0 0 1 13 4.325a8.659 8.659 0 0 1 6.527 2.965l3.05-3.05z" fill="#3C3F43"/><ellipse fill="#3C3F43" cx="5.318" cy="6.548" rx="1.773" ry="1.786"/><rect stroke="#3C3F43" stroke-width="2.4" fill="#B3BAC3" x="1.182" y="15.476" width="4.727" height="9.524" rx="1.2"/><rect stroke="#3C3F43" stroke-width="2.4" fill="#B3BAC3" x="20.091" y="15.476" width="4.727" height="9.524" rx="1.2"/><ellipse fill="#3C3F43" cx="20.682" cy="6.548" rx="1.773" ry="1.786"/></g></g></svg>