<svg xmlns="http://www.w3.org/2000/svg" width="41" height="43" viewBox="0 0 41 43">
    <g fill="none" fill-rule="evenodd">
        <ellipse cx="23.515" cy="17.319" fill="#4BE3D1" rx="17.485" ry="17.319"/>
        <path fill="#FFF" d="M21.857 24.237h4.37v-4.33h-4.37v4.33zm-13.114 0h4.371v-4.33H8.743v4.33zm15.503 4.12l2.706 1.076c-1.559 3.857-5.276 6.35-9.467 6.35-4.19 0-7.907-2.493-9.467-6.35l2.706-1.075c1.115 2.758 3.768 4.539 6.761 4.539 2.993 0 5.647-1.781 6.761-4.54zm-6.76 11.756c-8.035 0-14.572-6.474-14.572-14.432 0-7.959 6.537-14.433 14.571-14.433 8.035 0 14.571 6.474 14.571 14.433 0 7.958-6.536 14.432-14.57 14.432zm0-31.752C7.843 8.361 0 16.131 0 25.681S7.844 43 17.485 43c9.642 0 17.486-7.77 17.486-17.32S27.127 8.362 17.485 8.362z"/>
    </g>
</svg>
