<svg xmlns="http://www.w3.org/2000/svg" width="18" height="14" viewBox="0 0 18 14">
    <path fill="#1FBEDC" fill-rule="nonzero" d="M1.098 0C.49 0 0 .49 0 1.094c0 .604.491 1.093 1.098 1.093h15.804c.607 0 1.098-.49 1.098-1.093C18 .49 17.509 0 16.902 0H1.098zm0 5.906C.49 5.906 0 6.396 0 7c0 .604.491 1.094 1.098 1.094h15.804C17.51 8.094 18 7.604 18 7c0-.604-.491-1.094-1.098-1.094H1.098zm0 5.907c-.607 0-1.098.49-1.098 1.093C0 13.51.491 14 1.098 14h15.804C17.51 14 18 13.51 18 12.906c0-.604-.491-1.093-1.098-1.093H1.098z"/>
</svg>
