<svg xmlns="http://www.w3.org/2000/svg" width="100" height="100" viewBox="0 0 100 100">
    <g fill="none" fill-rule="evenodd">
        <circle cx="50" cy="50" r="50" fill="#5D73F9"/>
        <path fill="#3D4EB8" fill-rule="nonzero" d="M67.43 42.45l3.278-1.873C69.51 30.605 58.602 23 49.19 23 37.487 23 28 32.487 28 44.19c0 6.76 3.165 12.782 8.095 16.662v11.53s5.263 8.514 14.572 9.65c0 0-3.066-14.76 16.46-14.76l1.59-12.374 4.593-2.383-5.88-10.066zM40.691 29.544c6.108-2.952 9.229 2.784 9.229 2.784 1.719 3.483.516 6.05-.23 7.154-1.414-1.064-2.915-1.53-4.472-1.385-2.616.252-4.627 2.175-5.471 3.122-.494-.335-.867-.788-1.282-1.238-1.942-2.107-3.88-7.486 2.226-10.437zm7.04 21.031c-.483 1.319-1.826 2.866-4.334 3.112-6.047.595-8.382-3.403-8.382-3.403-1.413-1.814-2.194-4.575-2.194-7.029 0-3.437 1.132-6.602 3.024-9.173-.546 2.614.066 4.604 1.497 6.67 1.049 1.514 2.6 2.434 4.612 2.733 2.133.316 3.704 1.161 4.671 2.512 1.203 1.677 1.36 3.528 1.107 4.578zm11.45-5.133c-.456 1.9-3.959 7.374-10.103 3.511-.11-1.12-.449-2.493-1.337-3.737-1.19-1.669-3.07-2.704-5.587-3.08a6.639 6.639 0 0 1-1.145-.27c.824-.857 2.425-2.232 4.347-2.413 1.419-.143 2.796.406 4.11 1.607l.567.52.447-.628c.022-.03 2.204-3.09 5.872-1.563 3.99 1.662 2.828 5.938 2.807 6.049l.023.004zm1.512-3.34c-.273-1.29-1.169-3-3.873-3.991-2.113-.775-3.822-.443-5.07.157.532-1.624.708-3.876-.608-6.544-1.193-2.417-3.387-3.392-5.41-3.748 0 0 8.086-1.827 12.158 2.817 4.05 4.616 3.562 7.747 2.803 11.31z"/>
    </g>
</svg>
