<svg width="60" height="22" viewBox="0 0 60 22" xmlns="http://www.w3.org/2000/svg"><title>11B5B098-478C-441D-A877-A7B15D2A255A</title><path d="M4.81 3.25H0v18.07h11.232l.52-3.744H4.81V3.25zM15.704 0c-1.56 0-2.652 1.118-2.652 2.548s1.092 2.548 2.652 2.548 2.652-1.118 2.652-2.548S17.264 0 15.704 0zm2.314 7.462H13.39V21.32h4.628V7.462zm15.132 0h-4.706l-2.236 10.452-2.08-10.452H19.11l4.316 13.858h5.486L33.15 7.462zm2.86 9.308a2.524 2.524 0 0 0-2.522 2.522 2.502 2.502 0 0 0 2.522 2.496 2.502 2.502 0 0 0 2.522-2.496 2.524 2.524 0 0 0-2.522-2.522zm15.964.286v-5.044c0-3.328-1.768-5.018-5.98-5.018-1.56 0-3.614.364-5.33 1.066l1.014 2.99c1.378-.468 2.756-.728 3.614-.728 1.586 0 2.158.416 2.158 1.924v.468h-1.196c-4.264 0-6.578 1.69-6.578 4.732 0 2.548 1.768 4.342 4.524 4.342 1.612 0 3.172-.52 4.16-2.028.728 1.326 1.846 1.82 3.562 1.95l.936-2.99c-.624-.234-.884-.624-.884-1.664zm-6.37 1.482c-.884 0-1.378-.598-1.378-1.534 0-1.222.78-1.82 2.444-1.82h.78v2.262c-.416.65-1.066 1.092-1.846 1.092zM57.096 0c-1.56 0-2.652 1.118-2.652 2.548s1.092 2.548 2.652 2.548 2.652-1.118 2.652-2.548S58.656 0 57.096 0zm2.314 7.462h-4.628V21.32h4.628V7.462z" fill="#313139" fill-rule="evenodd"/></svg>