<svg xmlns="http://www.w3.org/2000/svg" width="234" height="234" viewBox="0 0 234 234">
    <g fill="none" fill-rule="evenodd">
        <circle cx="117" cy="117" r="117" fill="#5D73F9"/>
        <path fill="#3C4EB8" fill-rule="nonzero" d="M103.312 71.558a.182.182 0 0 1-.133-.174V70.14a4.75 4.75 0 0 1-1.851-1.488 4.66 4.66 0 0 1-.908-3.27l-.23.336a13.456 13.456 0 0 1-6.289 4.98 9.467 9.467 0 0 1-6.343 0 13.079 13.079 0 0 1-6.344-4.994 14.518 14.518 0 0 1-2.417-5.869.447.447 0 0 0-.412-.377c-.245 0-1.118-.378-2.187-4.192-.839-2.962-.482-4.038-.203-4.416a.964.964 0 0 1 .832-.363h.202a.447.447 0 0 0 .475-.412c0-.063.524-6.448 4.31-8.747 1.894-1.153 4.319-1.104 7.21.126 1.165.5 2.36.925 3.578 1.271a15.293 15.293 0 0 1 13.602-8.3h1.656a13.086 13.086 0 0 0-4.716-5.589 4.695 4.695 0 0 0 1.342-3.416.447.447 0 0 0-.16-.314.475.475 0 0 0-.315-.077c-.098 0-9.62 1.083-14.21.132-4.723-.97-9.9 2.606-10.941 6.267a6.91 6.91 0 0 0-4.514 2.55c-2.096 2.564-2.717 6.644-1.893 12.122.056.698.14 1.397.266 2.096l-.084.104c-1.824 2.418-1.16 5.8-.496 8.133.405 1.439 1.16 4.1 2.864 5.784a18.577 18.577 0 0 0 1.362 3.494 20.575 20.575 0 0 0 1.95 3.123v2.543a.175.175 0 0 1-.133.174c-6.518 1.502-21.658 6.288-21.658 18.319a2.368 2.368 0 0 0 2.361 2.361h63.745a2.368 2.368 0 0 0 2.34-2.361c0-12.01-15.133-16.81-21.658-18.312zm-12.575 9.194a12.499 12.499 0 0 1-10.243-5.093 4.89 4.89 0 0 0 2.23-2.648 15.866 15.866 0 0 0 3.415 1.677 13.777 13.777 0 0 0 9.195 0 16.202 16.202 0 0 0 3.409-1.719 4.89 4.89 0 0 0 2.236 2.683 12.499 12.499 0 0 1-10.242 5.1zm22.775-42.526h-7.308c-6.339 0-11.478 5.14-11.478 11.479 0 5.684 4.16 10.512 9.78 11.353.255 1.516.166 3.07-.258 4.548a.922.922 0 0 0 1.3 1.083c1.907-.964 4.61-2.739 6.057-5.485h1.907a11.479 11.479 0 0 0 11.458-11.5c0-6.33-5.126-11.466-11.458-11.478zm1.866 16.565h-11.039a1.11 1.11 0 1 1 0-2.222h11.046a1.11 1.11 0 1 1 0 2.222h-.007zm0-3.975h-11.039a1.11 1.11 0 1 1 0-2.222h11.046a1.11 1.11 0 1 1 0 2.222h-.007zm0-3.976h-11.039a1.11 1.11 0 1 1 0-2.221h11.046a1.11 1.11 0 1 1 0 2.221h-.007z"/>
        <g transform="translate(93 108)">
            <rect width="112" height="72" fill="#3C4EB8" rx="8"/>
            <text fill="#5D73F9" font-family="ArialRoundedMTBold, Arial Rounded MT Bold" font-size="21">
                <tspan x="17.6" y="31.4">Hello</tspan>
            </text>
            <text fill="#5D73F9" font-family="KohinoorDevanagari-Regular, Kohinoor Devanagari" font-size="28.8">
                <tspan x="39.2" y="56.4">नमस्ते</tspan>
            </text>
        </g>
        <g transform="translate(68 150)">
            <circle cx="29" cy="29" r="29" fill="#4355C3" stroke="#5D73F9" stroke-width="3.5"/>
            <path fill="#1EBFDC" d="M28.937 13.976c-2.518 0-5.035 1.888-5.035 5.035V29.08c0 3.147 2.517 5.035 5.035 5.035 2.517 0 5.034-1.888 5.034-5.035V19.01c0-3.146-2.517-5.034-5.034-5.034zm8.81 12.587c-1.258 0-1.258 0-1.258 1.258v1.259c0 4.405-3.147 7.552-7.552 7.552-4.406 0-7.552-3.147-7.552-7.552V27.82c0-1.259 0-1.259-1.259-1.259s-1.259 0-1.259 1.259v1.259c0 5.035 3.147 8.81 8.811 10.069v3.776c0 1.258 0 1.258 1.259 1.258s1.259 0 1.259-1.258v-3.776c5.663-1.258 8.81-5.034 8.81-10.07v-1.258c0-1.258 0-1.258-1.259-1.258z"/>
        </g>
        <path fill="#1EBFDC" fill-rule="nonzero" d="M132.426 98.3A1.43 1.43 0 0 1 131 96.874V83.968a1.43 1.43 0 0 1 1.426-1.426 1.43 1.43 0 0 1 1.426 1.426v12.906a1.43 1.43 0 0 1-1.426 1.426zm6.702 0a1.43 1.43 0 0 1-1.426-1.426V77.48a1.43 1.43 0 0 1 1.426-1.426 1.43 1.43 0 0 1 1.427 1.426v19.394a1.43 1.43 0 0 1-1.427 1.426zm6.703 0c-.784 0-1.426-.642-1.426-1.497v-8.77a1.43 1.43 0 0 1 1.426-1.427 1.43 1.43 0 0 1 1.426 1.426v8.842a1.43 1.43 0 0 1-1.426 1.426zm6.702 0a1.43 1.43 0 0 1-1.426-1.426V67.426A1.43 1.43 0 0 1 152.533 66a1.43 1.43 0 0 1 1.426 1.426v29.448a1.43 1.43 0 0 1-1.426 1.426zm6.703 0a1.43 1.43 0 0 1-1.426-1.426V79.547a1.43 1.43 0 0 1 1.426-1.426 1.43 1.43 0 0 1 1.426 1.426v17.327a1.43 1.43 0 0 1-1.426 1.426zm6.702 0a1.43 1.43 0 0 1-1.426-1.426V72.489a1.43 1.43 0 0 1 1.426-1.427 1.43 1.43 0 0 1 1.426 1.427v24.385a1.43 1.43 0 0 1-1.426 1.426zm6.703 0a1.43 1.43 0 0 1-1.426-1.426v-8.628a1.43 1.43 0 0 1 1.426-1.426 1.43 1.43 0 0 1 1.426 1.426v8.628a1.43 1.43 0 0 1-1.426 1.426z"/>
        <path fill="#4355C3" fill-rule="nonzero" d="M68.813 130.486c.633.177 1.242.304 1.828.383l2.807-9.816 9.36 16.825c.36.736.132 1.639-.604 1.998l-16.777 9.335 2.607-9.231c-7.808-3.303-12.143-11.942-9.74-20.346.125-.366.227-.78.352-1.145.68 5.503 4.516 10.377 10.167 11.997z"/>
    </g>
</svg>
