<svg xmlns="http://www.w3.org/2000/svg" width="44" height="40" viewBox="0 0 44 40">
    <g fill="none" fill-rule="evenodd">
        <rect width="35.676" height="26.4" x="8.324" fill="#4BE3D1" rx="3.6"/>
        <path fill="#FFF" d="M21.554 24.6h2.874v-2.9h-2.874v2.9zm-5.748 0h2.874v-2.9h-2.874v2.9zm-5.747 0h2.873v-2.9H10.06v2.9zM2.874 36.2v-2.9h28.739l.001 2.9H2.874zm2.874-21.75h22.99l.002 15.95H5.748V14.45zM31.613 30.4V14.45c0-1.6-1.29-2.9-2.874-2.9H5.748c-1.585 0-2.874 1.3-2.874 2.9V30.4H0v5.8c0 1.6 1.289 2.9 2.874 2.9h28.739c1.585 0 2.873-1.3 2.873-2.9v-5.8h-2.873z"/>
    </g>
</svg>
