<svg width="112" height="113" viewBox="0 0 112 113" xmlns="http://www.w3.org/2000/svg"><title>9A7F1523-3B6F-407A-B94E-F736D12B2293</title><g transform="translate(0 .366)" fill="none" fill-rule="evenodd"><ellipse fill="#1EBFDC" cx="56" cy="56" rx="56" ry="56"/><g style="mix-blend-mode:multiply"><path d="M57.105 58.46h8.482c.664 0 1.202-.538 1.202-1.202V43.837c0-.658-.538-1.203-1.202-1.203H46.203c-.664 0-1.203.539-1.203 1.203v24.378c0 .657.54 1.202 1.205 1.202H55.9c.67 0 1.205-.538 1.205-1.202V58.46z" stroke="#3C3F43" stroke-width="2.4" fill="#FFF"/><path fill="#3C3F43" d="M64.368 59.677h2.421v2.435h-2.421z"/><path fill="#3C3F43" d="M65.579 58.46H68v2.435h-2.421zM55.895 68.2h2.421v2.434h-2.421zM63.158 60.895h2.421v2.435h-2.421z"/><path fill="#3C3F43" d="M61.947 62.112h2.421v2.435h-2.421zM59.526 64.547h2.421v2.435h-2.421zM57.105 66.982h2.421v2.435h-2.421z"/><path fill="#3C3F43" d="M60.737 63.33h2.421v2.435h-2.421zM58.316 65.764h2.421V68.2h-2.421z"/><path d="M55.895 58.46h9.684v1.218h-9.684V58.46zm0 1.218h8.473v1.217h-8.473v-1.217zm0 1.217h7.263v1.218h-7.263v-1.218zm0 1.218h6.052v1.217h-6.052v-1.217zm0 1.217h4.842v1.217h-4.842V63.33zm0 1.217h3.631v1.218h-3.631v-1.218zm0 1.218h2.42v1.217h-2.42v-1.217zm0 1.217h1.21V68.2h-1.21v-1.218z" fill="#B3BAC3"/><path fill="#3C3F43" d="M55.895 57.243h2.421v12.174h-2.421z"/><path fill="#3C3F43" d="M68.034 57.25v2.421H55.86v-2.42z"/></g></g></svg>