<svg xmlns="http://www.w3.org/2000/svg" width="43" height="41" viewBox="0 0 43 41">
    <g fill="none" fill-rule="evenodd">
        <rect width="36.865" height="26.529" fill="#4BE3D1" rx="3.6"/>
        <path fill="#FFF" d="M16.698 24.972h14.37v-2.914h-14.37v2.914zm0-5.829h20.117V16.23H16.698v2.914zM39.69 30.8h-7.184v7.139c-3.275-.676-5.748-3.62-5.748-7.139H13.824V10.4H39.69v20.4zm0-23.313H13.824c-1.585 0-2.874 1.307-2.874 2.914v20.4c0 1.606 1.29 2.913 2.874 2.913h10.477c1.24 4.209 5.093 7.286 9.64 7.286h1.437v-7.286h4.311c1.585 0 2.874-1.307 2.874-2.914V10.4c0-1.606-1.289-2.913-2.874-2.913z"/>
    </g>
</svg>
