<svg xmlns="http://www.w3.org/2000/svg" width="112" height="112" viewBox="0 0 112 112">
    <g fill="none" fill-rule="evenodd">
        <circle cx="56" cy="56" r="56" fill="#1EBFDC"/>
        <g style="mix-blend-mode:multiply">
            <path fill="#B3BAC3" d="M50.303 52.778a.935.935 0 1 0 .097 1.866h10.578a.933.933 0 1 0 0-1.866H50.4a.933.933 0 0 0-.097 0zM50.303 57.133A.935.935 0 1 0 50.4 59h10.578a.933.933 0 1 0 0-1.867H50.4a.933.933 0 0 0-.097 0z"/>
            <path fill="#000" fill-rule="nonzero" d="M56 44c-3.8 0-7.263 1.161-9.81 3.101C43.644 49.041 42 51.81 42 54.89c0 2.832 1.433 5.36 3.636 7.262l-1.128 5.62a.933.933 0 0 0 1.293 1.03l5.28-2.323a.933.933 0 1 0-.75-1.702l-3.645 1.605.875-4.366a.933.933 0 0 0-.34-.914c-2.118-1.654-3.354-3.834-3.354-6.212 0-2.418 1.278-4.637 3.46-6.3 2.183-1.663 5.257-2.722 8.673-2.722 3.416 0 6.49 1.059 8.672 2.722 2.183 1.663 3.461 3.882 3.461 6.3 0 2.418-1.278 4.627-3.46 6.29-2.183 1.663-5.257 2.732-8.673 2.732-.704 0-1.39-.05-2.061-.136a.933.933 0 1 0-.243 1.847c.75.097 1.52.156 2.304.156 3.8 0 7.263-1.171 9.81-3.111 2.546-1.94 4.19-4.698 4.19-7.778 0-3.08-1.644-5.847-4.19-7.788C63.263 45.161 59.8 44 56 44z"/>
        </g>
    </g>
</svg>
