<svg xmlns="http://www.w3.org/2000/svg" width="40" height="41" viewBox="0 0 40 41">
    <g fill="none" fill-rule="evenodd" transform="translate(0 -1)">
        <rect width="30.303" height="30" x="9.697" y="12" fill="#4BE3D1" rx="3.6"/>
        <g fill="#FFF">
            <path d="M10.253 26.1h14.646v-2.9H10.253z"/>
            <path d="M30.758 23.2h1.464v-5.8h-1.464v5.8zm-2.93 7.25H7.323V11.6c0-.8.658-1.45 1.465-1.45h17.576c.807 0 1.464.65 1.464 1.45v18.85zM2.93 23.2h1.465v-5.8H2.929v5.8zm32.223-8.7h-4.394v-2.9c0-2.398-1.972-4.35-4.394-4.35H19.04v-2.9h2.93v-2.9h-8.788v2.9h2.93v2.9H8.787c-2.423 0-4.394 1.952-4.394 4.35v2.9H0v11.6h4.394v7.25h26.364V26.1h4.394V14.5z"/>
            <path d="M10.253 20.3h5.858v-5.8h-5.858zM19.04 20.3H24.9v-5.8H19.04z"/>
        </g>
    </g>
</svg>
